Coordinates
version=1
nRows=26
nColumns=24
inDegrees=yes

Units are S.I. units (second, meters, Newtons, ...)
Angles are in degrees.

endheader
time	pelvis_tilt	pelvis_list	pelvis_rotation	pelvis_tx	pelvis_ty	pelvis_tz	hip_flexion_r	hip_adduction_r	hip_rotation_r	knee_angle_r	ankle_angle_r	subtalar_angle_r	mtp_angle_r	hip_flexion_l	hip_adduction_l	hip_rotation_l	knee_angle_l	ankle_angle_l	subtalar_angle_l	mtp_angle_l	lumbar_extension	lumbar_bending	lumbar_rotation
      4.30500000	     -8.86739419	      2.41033655	      0.23826492	     -1.95104389	     -0.01178915	      0.41758327	     31.90519918	     -3.06983405	     -3.90515078	    -49.87407772	    -13.99664219	    -17.36602596	     10.74864783	      7.72643191	      6.07555156	     12.02521061	    -12.32996226	      2.40755208	     -1.83602607	      5.39605967	      8.30769470	     -1.56218301	     -1.23627330
      4.31000000	     -8.89881112	      2.29287149	      0.53873317	     -1.94524108	     -0.01200375	      0.41739497	     32.25195860	     -3.14130596	     -4.36965391	    -48.48343416	    -13.57317734	    -17.00933716	     10.63444275	      7.18079596	      5.94855043	     12.29083692	    -12.00648269	      2.64022803	     -1.72247351	      5.39725945	      8.28442461	     -1.52172666	     -1.58799262
      4.31500000	     -8.93893205	      2.17542697	      0.83612888	     -1.93947638	     -0.01225790	      0.41725217	     32.57217226	     -3.20337372	     -4.80406699	    -47.01079043	    -13.14552845	    -16.58487948	     10.59170701	      6.66562060	      5.81645008	     12.55478146	    -11.71858391	      2.86296077	     -1.61154690	      5.39195489	      8.26196033	     -1.48520840	     -1.92034052
      4.32000000	     -8.97934001	      2.05952013	      1.12836823	     -1.93372750	     -0.01255079	      0.41714044	     32.85842100	     -3.26325423	     -5.22224104	    -45.46490437	    -12.70773470	    -16.07522874	     10.61316886	      6.16185651	      5.68051992	     12.81517713	    -11.44879980	      3.08885681	     -1.50169891	      5.38185028	      8.23564015	     -1.45067412	     -2.24342487
      4.32500000	     -9.01306887	      1.94530812	      1.41936269	     -1.92799335	     -0.01286624	      0.41706704	     33.10034869	     -3.32215823	     -5.62904923	    -43.84618467	    -12.25738699	    -15.46520953	     10.68386481	      5.66505056	      5.54156486	     13.05855105	    -11.20157442	      3.31127129	     -1.39215092	      5.36303919	      8.19553714	     -1.42261843	     -2.55722462
      4.33000000	     -9.04748783	      1.83720924	      1.70459749	     -1.92226808	     -0.01321582	      0.41702042	     33.30675168	     -3.38007582	     -6.00770678	    -42.15954162	    -11.79566053	    -14.76240594	     10.80077439	      5.17965496	      5.40349759	     13.29597006	    -10.97293476	      3.53784160	     -1.26857635	      5.35220245	      8.15399258	     -1.39681225	     -2.85618446
      4.33500000	     -9.16078189	      1.70809957	      1.89593302	     -1.91652612	     -0.01366926	      0.41718765	     33.56857718	     -3.33291791	     -6.23222726	    -40.39208883	    -11.46045770	    -14.09525994	     10.89903690	      4.79039810	      5.22623655	     13.41331860	    -10.75768531	      3.73170256	     -1.20474303	      5.35071854	      8.19810945	     -1.35246058	     -3.05877148
      4.34000000	     -9.10099914	      1.65423068	      2.26893606	     -1.91085444	     -0.01398302	      0.41709811	     33.59688688	     -3.50240727	     -6.66574148	    -38.61076047	    -10.87224958	    -13.09531947	     11.10128251	      4.22729936	      5.14128634	     13.66887945	    -10.56389181	      3.97121031	     -0.98482756	      5.34937527	      8.03711910	     -1.40452981	     -3.47373453
      4.34500000	     -9.12245818	      1.57615062	      2.53894575	     -1.90511320	     -0.01440209	      0.41718535	     33.68445306	     -3.57237507	     -6.98288752	    -36.76775419	    -10.41502572	    -12.13388146	     11.23343554	      3.74894448	      5.01378875	     13.83204409	    -10.36812247	      4.19242060	     -0.80969774	      5.35806855	      7.97445302	     -1.41663483	     -3.72578420
      4.35000000	     -9.12768829	      1.52096356	      2.82232967	     -1.89938798	     -0.01482509	      0.41730032	     33.71970421	     -3.66590678	     -7.27201636	    -34.88937062	     -9.96357249	    -11.10775372	     11.35643753	      3.26658857	      4.90534742	     13.95900875	    -10.19218173	      4.40208124	     -0.59943030	      5.38652654	      7.88713016	     -1.46224364	     -4.01156267
      4.35500000	     -9.14232397	      1.47106064	      3.09267020	     -1.89363338	     -0.01527608	      0.41747790	     33.73193807	     -3.75308433	     -7.53489986	    -32.97964814	     -9.56031224	    -10.05769110	     11.46221665	      2.79733388	      4.79397861	     14.04852698	    -10.02084673	      4.60538460	     -0.37525777	      5.43814173	      7.81296333	     -1.51361789	     -4.26991022
      4.36000000	     -9.10508333	      1.45415135	      3.39333333	     -1.88792296	     -0.01568918	      0.41761061	     33.65394587	     -3.88862569	     -7.79106210	    -31.05529921	     -9.15297736	     -8.96005526	     11.52073984	      2.29829051	      4.71989927	     14.11310737	     -9.89662915	      4.80541665	     -0.10657456	      5.51051831	      7.66939488	     -1.59310415	     -4.59423834
      4.36500000	     -9.07598669	      1.43637714	      3.67988597	     -1.88214115	     -0.01612219	      0.41780651	     33.55307038	     -4.01662597	     -8.05985024	    -29.12195570	     -8.79744422	     -7.87393144	     11.54743989	      1.80038002	      4.63305049	     14.15019504	     -9.76087179	      4.99600874	      0.18469962	      5.60107084	      7.54475281	     -1.67437671	     -4.87337919
      4.37000000	     -9.03199470	      1.42616459	      3.96750332	     -1.87632962	     -0.01654945	      0.41802026	     33.40547448	     -4.15298943	     -8.34411324	    -27.18812082	     -8.48063030	     -6.80398692	     11.54714331	      1.29547388	      4.54910649	     14.16471839	     -9.64501983	      5.18051103	      0.50081628	      5.71357309	      7.40657920	     -1.76064478	     -5.15289869
      4.37500000	     -8.97325752	      1.41853123	      4.25882106	     -1.87049010	     -0.01696816	      0.41827362	     33.21331836	     -4.29048043	     -8.64590195	    -25.26537984	     -8.20406472	     -5.76698396	     11.51983806	      0.78453893	      4.46044653	     14.16320297	     -9.54870219	      5.35740966	      0.83549539	      5.84180363	      7.25308043	     -1.85497636	     -5.43280805
      4.38000000	     -8.93918335	      1.40292102	      4.52316696	     -1.86454113	     -0.01742234	      0.41853703	     33.02345105	     -4.41176333	     -8.97973202	    -23.36203441	     -7.98006098	     -4.78723061	     11.51605256	      0.29414597	      4.36023884	     14.14892363	     -9.45260186	      5.51487807	      1.16922817	      5.98549350	      7.14720466	     -1.92433413	     -5.67677483
      4.38500000	     -8.85539361	      1.39379008	      4.82070254	     -1.85861997	     -0.01782878	      0.41879732	     32.75324675	     -4.54832864	     -9.33950049	    -21.49259662	     -7.76130843	     -3.85093164	     11.48031447	     -0.21494273	      4.26400688	     14.13952618	     -9.42044156	      5.67755636	      1.52452175	      6.15295202	      6.97952739	     -2.00554306	     -5.97309441
      4.39000000	     -8.75558790	      1.37895913	      5.11489573	     -1.85263454	     -0.01822456	      0.41908282	     32.44772264	     -4.67131184	     -9.73237673	    -19.67435263	     -7.56248620	     -2.98145564	     11.41051113	     -0.72953543	      4.15584825	     14.12534080	     -9.41685543	      5.82718825	      1.88023009	      6.32332092	      6.80629524	     -2.07619094	     -6.27325994
      4.39500000	     -8.66741525	      1.35270482	      5.40730421	     -1.84658120	     -0.01865678	      0.41938379	     32.13817485	     -4.77376437	    -10.12394483	    -17.91577138	     -7.36791503	     -2.20345704	     11.33046790	     -1.20936923	      4.03608036	     14.12594783	     -9.46578570	      5.97898672	      2.21027620	      6.50562431	      6.65924976	     -2.12962471	     -6.56101494
      4.40000000	     -8.55033961	      1.32637836	      5.69913153	     -1.84048742	     -0.01902707	      0.41969676	     31.79811738	     -4.87211128	    -10.57291894	    -16.25173622	     -7.22776210	     -1.45694766	     11.21655040	     -1.71366265	      3.90621182	     14.11895188	     -9.52391224	      6.09224719	      2.57643112	      6.69608378	      6.48683683	     -2.18011308	     -6.89271161
      4.40500000	     -8.47099931	      1.27723465	      5.98767262	     -1.83429796	     -0.01947068	      0.42004820	     31.48701973	     -4.93316928	    -10.97332184	    -14.66995840	     -7.07399616	     -0.82937338	     11.09412627	     -2.14726833	      3.75576892	     14.12938356	     -9.65115301	      6.21085564	      2.89607975	      6.89958621	      6.37494338	     -2.20899778	     -7.19896142
      4.41000000	     -8.37311873	      1.22644010	      6.26967433	     -1.82808530	     -0.01986188	      0.42039885	     31.16620377	     -4.98652086	    -11.40175107	    -13.20539480	     -6.98857151	     -0.22916753	     10.94719749	     -2.58463079	      3.59702296	     14.14248878	     -9.80540612	      6.30378475	      3.25605895	      7.13145236	      6.25168309	     -2.22493089	     -7.53871410
      4.41500000	     -8.26772137	      1.16237948	      6.53288635	     -1.82178338	     -0.02025585	      0.42077131	     30.84086036	     -5.00812637	    -11.79030974	    -11.86081458	     -6.88077955	      0.31721409	     10.77746517	     -3.00242932	      3.42551099	     14.10811948	    -10.01706188	      6.37969237	      3.59548750	      7.38091940	      6.13819661	     -2.21843417	     -7.85956751
      4.42000000	     -8.20606653	      1.07895947	      6.80504813	     -1.81541285	     -0.02068258	      0.42115506	     30.56279851	     -5.01069200	    -12.12587849	    -10.63467674	     -6.81595508	      0.77058579	     10.60722602	     -3.34849043	      3.23312081	     14.12130826	    -10.27748358	      6.45196710	      3.95452133	      7.67175705	      6.08810624	     -2.19767404	     -8.19135671
      4.42500000	     -8.23312378	      0.98427424	      7.10188336	     -1.80896867	     -0.02119570	      0.42153839	     30.37613108	     -5.01348371	    -12.36012110	     -9.52905165	     -6.79475864	      1.05532937	     10.45161552	     -3.56962540	      3.03917503	     14.21246844	    -10.60157689	      6.49916780	      4.28068530	      7.95045832	      6.14941567	     -2.18068185	     -8.54611635
      4.43000000	     -8.19834120	      0.86956179	      7.38584619	     -1.80249089	     -0.02158679	      0.42191161	     30.13239664	     -4.98853437	    -12.63905666	     -8.55691640	     -6.82410726	      1.39443594	     10.29470664	     -3.83058508	      2.81112004	     14.23547195	    -10.95812029	      6.54372841	      4.71419390	      8.33475386	      6.15504325	     -2.12492317	     -8.91802834
